####
#
# OBJ File Generated by Meshlab
#
####
# Object foot.obj
#
# Vertices: 119
# Faces: 234
#
####
vn -0.083034 0.992058 0.094480
v 0.025696 0.038414 0.002844
vn 0.028488 0.985436 0.167645
v 0.047303 0.042109 -0.021461
vn 0.042530 0.966950 0.251394
v 0.060101 0.036748 0.005165
vn 0.341268 0.878176 0.335177
v 0.109316 0.031647 0.012213
vn -0.302352 0.943457 -0.135912
v 0.019300 0.037247 -0.011041
vn -0.266083 0.963938 0.004791
v 0.017004 0.037356 0.001818
vn -0.414235 0.884459 -0.214804
v 0.010963 0.033685 -0.010226
vn 0.042576 0.983391 0.176434
v 0.099821 0.037848 -0.006425
vn -0.701693 -0.712274 -0.017123
v -0.005792 0.002438 -0.009880
vn -0.669392 0.624805 -0.401911
v 0.002672 0.029905 -0.009340
vn -0.519159 -0.852026 0.067273
v 0.004765 -0.007630 -0.015254
vn -0.097286 -0.926407 0.363739
v 0.012405 -0.007715 -0.006482
vn -0.605797 0.794875 -0.034405
v 0.000914 0.029905 0.000632
vn 0.395287 0.885367 0.244691
v 0.119516 0.033429 -0.003284
vn 0.401981 0.882063 0.245716
v 0.172347 0.008286 0.001725
vn -0.103073 0.230029 0.967710
v 0.077886 0.019018 0.037702
vn 0.132252 0.899718 0.415953
v 0.106678 0.032778 0.011916
vn -0.206803 0.682063 0.701443
v 0.025655 0.033351 0.010896
vn 0.393330 0.908167 0.143265
v 0.173767 0.013619 -0.025064
vn 0.347895 0.923143 -0.163633
v 0.172952 0.014303 -0.031270
vn 0.719780 0.686104 0.105724
v 0.182715 0.006735 -0.026953
vn 0.588401 0.793002 0.157898
v 0.177077 0.012106 -0.025361
vn 0.588437 0.779649 -0.214219
v 0.176292 0.012766 -0.031354
vn -0.100480 0.967644 -0.231449
v 0.048252 0.043035 -0.028275
vn 0.131073 0.991356 0.005725
v 0.112727 0.036800 -0.007872
vn 0.121327 0.985235 -0.120796
v 0.088060 0.039955 -0.023149
vn 0.311369 0.928199 0.203706
v 0.112433 0.036622 -0.004015
vn 0.308183 0.951042 -0.023296
v 0.116349 0.036186 -0.018171
vn 0.063905 0.202006 -0.977297
v 0.169032 0.006033 -0.038323
vn 0.529159 0.784004 0.324544
v 0.177342 0.005605 0.002097
vn -0.213665 -0.449436 0.867383
v 0.077858 0.012493 0.037250
vn -0.020226 -0.983803 0.178111
v 0.013681 -0.009512 -0.010952
vn -0.151888 0.057839 -0.986704
v 0.082033 0.024845 -0.039235
vn -0.065859 -0.299134 -0.951936
v 0.083289 0.021699 -0.038649
vn -0.286890 0.195668 -0.937768
v 0.049123 0.040803 -0.029771
vn -0.405169 0.332201 -0.851751
v 0.005860 0.022718 -0.016330
vn -0.780052 0.323549 -0.535570
v -0.002030 0.016106 -0.013341
vn -0.482095 0.466436 -0.741635
v 0.004183 0.027182 -0.013706
vn -0.879273 0.448385 -0.160717
v -0.004961 0.019645 -0.002182
vn -0.948510 0.311796 0.055790
v -0.008845 0.009352 -0.003246
vn -0.361563 -0.168419 0.917010
v 0.003186 0.014715 0.011186
vn -0.320331 0.571786 0.755281
v 0.008239 0.033522 0.005478
vn -0.331231 -0.117441 0.936213
v 0.070714 0.014538 0.035624
vn 0.211783 0.834635 0.508461
v 0.135145 0.008158 0.041798
vn -0.081012 0.149517 0.985435
v 0.137130 0.003016 0.045631
vn 0.121351 0.783367 0.609599
v 0.088739 0.020632 0.036567
vn -0.033902 0.845619 0.532709
v 0.078890 0.022751 0.033650
vn -0.260508 0.501633 0.824924
v 0.067639 0.021880 0.034311
vn 0.015600 0.888888 0.457860
v 0.052572 0.033313 0.014184
vn 0.015193 0.874700 0.484427
v 0.081676 0.022250 0.034617
vn 0.036620 0.883536 0.466929
v 0.092355 0.029358 0.020450
vn 0.026489 0.908197 0.417703
v 0.089837 0.029725 0.019827
vn -0.000398 0.940783 0.339010
v 0.025247 0.037815 0.006318
vn 0.160100 0.638106 -0.753120
v 0.091068 0.033648 -0.035021
vn 0.117398 0.867473 -0.483434
v 0.085705 0.037407 -0.031833
vn 0.220353 0.844222 -0.488603
v 0.128928 0.030761 -0.029269
vn 0.053348 0.413498 -0.908941
v 0.083883 0.031319 -0.038372
vn 0.170859 0.576922 -0.798729
v 0.174526 0.009871 -0.036282
vn 0.597733 0.462039 -0.655161
v 0.177677 0.008137 -0.035737
vn -0.052493 -0.449212 -0.891882
v 0.171377 -0.000796 -0.036926
vn -0.001108 -0.175015 -0.984565
v 0.175976 0.003530 -0.038094
vn 0.858571 0.418377 -0.296339
v 0.182206 0.007163 -0.030831
vn 0.025172 -0.999197 -0.031170
v 0.014843 -0.009839 -0.017031
vn -0.082477 -0.862691 -0.498961
v 0.006055 -0.008774 -0.020801
vn -0.067025 -0.372678 -0.925537
v 0.024313 -0.005678 -0.025198
vn -0.581600 -0.538086 0.610085
v -0.001094 0.002605 0.002182
vn -0.950917 0.092588 -0.295271
v -0.009800 0.006447 -0.006334
vn -0.673182 -0.635816 0.377575
v -0.007385 0.004887 -0.004639
vn -0.785397 0.250786 0.565913
v -0.005200 0.015944 0.004885
vn -0.374915 0.274198 0.885581
v 0.001943 0.019506 0.010841
vn -0.564066 -0.338886 0.752984
v -0.004306 0.012187 0.005613
vn -0.795780 -0.366105 0.482391
v -0.008750 0.008045 -0.001771
vn -0.903708 0.387184 0.182759
v -0.005386 0.018339 0.002249
vn -0.673652 0.487208 0.555716
v 0.000774 0.028380 0.003779
vn 0.550959 0.489419 0.675954
v 0.140965 0.003790 0.043950
vn 0.620005 0.558780 0.550780
v 0.155149 0.005023 0.031165
vn 0.369085 0.861895 0.347726
v 0.151398 0.008101 0.031038
vn 0.174939 0.667797 0.723494
v 0.139008 0.004851 0.044292
vn 0.254538 -0.678316 -0.689273
v 0.175111 -0.001440 -0.036083
vn 0.801038 -0.262412 -0.538031
v 0.181726 0.001131 -0.032753
vn 0.609073 -0.157722 -0.777273
v 0.179207 0.002287 -0.036761
vn 0.559001 -0.616127 -0.554892
v 0.180134 -0.000986 -0.032952
vn 0.819528 0.177166 -0.544965
v 0.181759 0.004159 -0.033042
vn 0.747679 -0.035352 0.663119
v 0.167125 -0.001462 0.017381
vn 0.710311 -0.117455 0.694019
v 0.153474 0.003449 0.033013
vn 0.749404 -0.025938 0.661605
v 0.178637 0.002281 0.004579
vn 0.635843 -0.338917 0.693426
v 0.152337 -0.001098 0.032113
vn -0.002681 -0.983176 0.182640
v 0.148072 -0.002959 0.030203
vn -0.466937 0.078328 -0.880815
v 0.003472 0.001299 -0.021701
vn -0.442752 0.282785 -0.850884
v 0.000369 0.010554 -0.018377
vn -0.792656 -0.078773 -0.604559
v -0.004554 0.001729 -0.015819
vn -0.354359 -0.280546 -0.892033
v 0.005396 -0.005126 -0.022695
vn -0.339522 0.204816 -0.918028
v 0.011647 0.006712 -0.024448
vn -0.201169 -0.006214 -0.979537
v 0.013754 -0.000202 -0.025727
vn -0.338305 -0.790514 0.510527
v 0.008775 -0.001945 0.005191
vn -0.578978 -0.685771 0.441025
v 0.001215 -0.002894 -0.002425
vn -0.499414 -0.525991 0.688418
v 0.007818 0.000287 0.007181
vn -0.118376 -0.895342 0.429360
v 0.016829 -0.001377 0.010609
vn -0.277801 -0.463097 0.841646
v 0.015774 0.001019 0.012899
vn -0.409587 -0.876464 0.253081
v 0.002472 -0.005398 -0.005694
vn 0.237101 -0.851559 0.467580
v 0.138980 0.000677 0.043866
vn -0.195155 -0.618893 0.760845
v 0.135915 0.000622 0.044366
vn -0.052460 -0.952675 0.299429
v 0.135270 -0.000668 0.041871
vn 0.255348 -0.871646 0.418367
v 0.153386 -0.002226 0.030320
vn 0.562455 -0.354696 0.746884
v 0.139450 0.002416 0.045368
vn 0.933608 -0.291259 -0.208674
v 0.183498 0.000285 -0.029396
vn 0.978839 0.198510 0.049681
v 0.183817 0.004485 -0.022895
vn 0.197470 -0.973249 -0.117438
v 0.179261 -0.003580 -0.027931
vn 0.435478 -0.830013 -0.348478
v 0.178835 -0.003223 -0.031175
vn 0.008665 -0.933649 -0.358083
v 0.171803 -0.004429 -0.032269
vn 0.382798 -0.916833 0.113502
v 0.173669 -0.004095 0.001328
vn 0.827745 -0.541883 0.145605
v 0.183739 -0.000368 -0.020450
vn 0.407739 -0.912616 0.029675
v 0.181003 -0.003581 -0.023827
vn 0.632908 -0.702084 0.326351
v 0.174315 -0.002680 0.004366
vn 0.932873 0.178959 0.312605
v 0.180844 0.002691 0.002012
vn 0.380370 -0.866969 0.321999
v 0.164161 -0.004178 0.018081
vn 0.028547 -0.998347 0.049885
v 0.161976 -0.005541 0.016031
vn 0.039999 -0.999092 -0.014698
v 0.172533 -0.005042 -0.026697
vn 0.652380 -0.544553 0.527126
v 0.166455 -0.002829 0.018042
# 119 vertices, 0 vertices normals

f 38//38 10//10 24//24
f 2//2 8//8 24//24
f 53//53 8//8 2//2
f 17//17 27//27 8//8
f 46//46 16//16 45//45
f 39//39 10//10 67//67
f 1//1 24//24 6//6
f 1//1 6//6 53//53
f 1//1 2//2 24//24
f 53//53 2//2 1//1
f 5//5 6//6 24//24
f 6//6 42//42 53//53
f 34//34 33//33 61//61
f 31//31 43//43 99//99
f 45//45 16//16 31//31
f 31//31 16//16 43//43
f 15//15 77//77 30//30
f 46//46 17//17 51//51
f 3//3 8//8 53//53
f 3//3 53//53 17//17
f 3//3 17//17 8//8
f 4//4 77//77 27//27
f 27//27 17//17 4//4
f 4//4 17//17 77//77
f 17//17 44//44 77//77
f 44//44 17//17 46//46
f 43//43 16//16 48//48
f 6//6 5//5 7//7
f 7//7 24//24 10//10
f 7//7 5//5 24//24
f 13//13 42//42 6//6
f 13//13 7//7 10//10
f 6//6 7//7 13//13
f 74//74 42//42 13//13
f 13//13 10//10 39//39
f 83//83 59//59 62//62
f 22//22 15//15 30//30
f 15//15 22//22 19//19
f 26//26 24//24 8//8
f 26//26 8//8 27//27
f 20//20 56//56 28//28
f 27//27 19//19 28//28
f 28//28 19//19 20//20
f 56//56 26//26 28//28
f 9//9 100//100 67//67
f 9//9 67//67 91//91
f 9//9 91//91 64//64
f 11//11 9//9 64//64
f 9//9 11//11 100//100
f 98//98 100//100 12//12
f 37//37 91//91 67//67
f 67//67 10//10 37//37
f 37//37 10//10 38//38
f 115//115 22//22 30//30
f 103//103 98//98 12//12
f 32//32 11//11 64//64
f 32//32 103//103 12//12
f 12//12 100//100 32//32
f 11//11 32//32 100//100
f 24//24 57//57 35//35
f 35//35 57//57 33//33
f 35//35 38//38 24//24
f 35//35 36//36 38//38
f 74//74 13//13 73//73
f 73//73 13//13 39//39
f 41//41 99//99 43//43
f 41//41 71//71 99//99
f 14//14 19//19 27//27
f 14//14 15//15 19//19
f 77//77 14//14 27//27
f 14//14 77//77 15//15
f 46//46 51//51 50//50
f 50//50 16//16 46//46
f 50//50 48//48 16//16
f 52//52 17//17 53//53
f 52//52 51//51 17//17
f 42//42 18//18 53//53
f 18//18 48//48 53//53
f 18//18 42//42 48//48
f 62//62 59//59 23//23
f 23//23 20//20 19//19
f 22//22 23//23 19//19
f 58//58 56//56 20//20
f 23//23 58//58 20//20
f 58//58 23//23 59//59
f 58//58 59//59 61//61
f 62//62 21//21 107//107
f 21//21 115//115 107//107
f 21//21 22//22 115//115
f 23//23 21//21 62//62
f 21//21 23//23 22//22
f 55//55 24//24 26//26
f 55//55 26//26 56//56
f 55//55 57//57 24//24
f 25//25 26//26 27//27
f 27//27 28//28 25//25
f 25//25 28//28 26//26
f 61//61 33//33 29//29
f 29//29 33//33 57//57
f 29//29 58//58 61//61
f 29//29 57//57 58//58
f 60//60 65//65 34//34
f 60//60 34//34 61//61
f 60//60 64//64 65//65
f 60//60 110//110 64//64
f 77//77 76//76 30//30
f 76//76 115//115 30//30
f 45//45 31//31 102//102
f 102//102 31//31 99//99
f 102//102 105//105 45//45
f 102//102 99//99 98//98
f 103//103 102//102 98//98
f 88//88 32//32 117//117
f 88//88 103//103 32//32
f 63//63 64//64 110//110
f 63//63 32//32 64//64
f 32//32 63//63 117//117
f 94//94 35//35 33//33
f 94//94 93//93 35//35
f 94//94 34//34 65//65
f 33//33 34//34 94//94
f 35//35 90//90 36//36
f 93//93 90//90 35//35
f 90//90 37//37 38//38
f 36//36 90//90 38//38
f 91//91 37//37 90//90
f 40//40 39//39 67//67
f 40//40 73//73 39//39
f 99//99 71//71 97//97
f 97//97 71//71 66//66
f 72//72 66//66 71//71
f 72//72 40//40 67//67
f 67//67 68//68 72//72
f 40//40 72//72 73//73
f 71//71 41//41 70//70
f 70//70 42//42 74//74
f 70//70 48//48 42//42
f 43//43 48//48 70//70
f 70//70 41//41 43//43
f 44//44 78//78 77//77
f 45//45 105//105 78//78
f 78//78 46//46 45//45
f 78//78 44//44 46//46
f 47//47 53//53 48//48
f 47//47 50//50 53//53
f 48//48 50//50 47//47
f 49//49 50//50 51//51
f 51//51 52//52 49//49
f 50//50 49//49 53//53
f 49//49 52//52 53//53
f 54//54 55//55 56//56
f 55//55 54//54 57//57
f 56//56 58//58 54//54
f 54//54 58//58 57//57
f 81//81 61//61 59//59
f 81//81 59//59 83//83
f 110//110 60//60 79//79
f 79//79 81//81 82//82
f 79//79 60//60 61//61
f 79//79 61//61 81//81
f 106//106 62//62 107//107
f 106//106 83//83 62//62
f 86//86 119//119 115//115
f 86//86 76//76 85//85
f 86//86 115//115 76//76
f 87//87 85//85 105//105
f 87//87 119//119 85//85
f 117//117 63//63 118//118
f 118//118 63//63 110//110
f 65//65 64//64 92//92
f 92//92 94//94 65//65
f 64//64 91//91 92//92
f 96//96 97//97 66//66
f 96//96 67//67 100//100
f 96//96 68//68 67//67
f 96//96 72//72 68//68
f 72//72 96//96 66//66
f 71//71 70//70 69//69
f 69//69 72//72 71//71
f 72//72 69//69 73//73
f 74//74 73//73 69//69
f 69//69 70//70 74//74
f 75//75 76//76 77//77
f 78//78 75//75 77//77
f 75//75 78//78 105//105
f 75//75 105//105 85//85
f 85//85 76//76 75//75
f 110//110 79//79 109//109
f 109//109 79//79 82//82
f 109//109 82//82 106//106
f 81//81 80//80 82//82
f 80//80 106//106 82//82
f 80//80 81//81 83//83
f 83//83 106//106 80//80
f 119//119 84//84 85//85
f 84//84 86//86 85//85
f 84//84 119//119 86//86
f 104//104 119//119 87//87
f 104//104 88//88 117//117
f 104//104 103//103 88//88
f 104//104 87//87 105//105
f 91//91 90//90 89//89
f 89//89 92//92 91//91
f 89//89 90//90 93//93
f 93//93 94//94 89//89
f 89//89 94//94 92//92
f 96//96 95//95 97//97
f 95//95 98//98 99//99
f 99//99 97//97 95//95
f 100//100 98//98 95//95
f 95//95 96//96 100//100
f 115//115 119//119 114//114
f 116//116 104//104 117//117
f 119//119 104//104 116//116
f 101//101 102//102 103//103
f 104//104 101//101 103//103
f 105//105 102//102 101//101
f 101//101 104//104 105//105
f 113//113 109//109 106//106
f 112//112 113//113 106//106
f 107//107 115//115 112//112
f 112//112 106//106 107//107
f 108//108 113//113 118//118
f 108//108 109//109 113//113
f 108//108 118//118 110//110
f 110//110 109//109 108//108
f 111//111 113//113 112//112
f 115//115 114//114 111//111
f 111//111 112//112 115//115
f 111//111 116//116 117//117
f 117//117 118//118 111//111
f 118//118 113//113 111//111
f 111//111 114//114 119//119
f 119//119 116//116 111//111
# 234 faces, 0 coords texture

# End of File